<?xml version="1.0" standalone="no"?><svg xmlns="http://www.w3.org/2000/svg" viewBox="0 0 1440 320"><path fill="#10b981" fill-opacity="1" d="M0,256L26.7,256C53.3,256,107,256,160,234.7C213.3,213,267,171,320,165.3C373.3,160,427,192,480,176C533.3,160,587,96,640,74.7C693.3,53,747,75,800,96C853.3,117,907,139,960,176C1013.3,213,1067,267,1120,277.3C1173.3,288,1227,256,1280,234.7C1333.3,213,1387,203,1413,197.3L1440,192L1440,0L1413.3,0C1386.7,0,1333,0,1280,0C1226.7,0,1173,0,1120,0C1066.7,0,1013,0,960,0C906.7,0,853,0,800,0C746.7,0,693,0,640,0C586.7,0,533,0,480,0C426.7,0,373,0,320,0C266.7,0,213,0,160,0C106.7,0,53,0,27,0L0,0Z"></path></svg>