<?xml version="1.0" standalone="no"?><svg xmlns="http://www.w3.org/2000/svg" viewBox="0 0 1440 320"><path fill="#10b981" fill-opacity="1" d="M0,288L30,282.7C60,277,120,267,180,266.7C240,267,300,277,360,250.7C420,224,480,160,540,160C600,160,660,224,720,229.3C780,235,840,181,900,170.7C960,160,1020,192,1080,213.3C1140,235,1200,245,1260,240C1320,235,1380,213,1410,202.7L1440,192L1440,0L1410,0C1380,0,1320,0,1260,0C1200,0,1140,0,1080,0C1020,0,960,0,900,0C840,0,780,0,720,0C660,0,600,0,540,0C480,0,420,0,360,0C300,0,240,0,180,0C120,0,60,0,30,0L0,0Z"></path></svg>